<svg xmlns="http://www.w3.org/2000/svg" viewBox="0 0 1200 700" role="img" aria-labelledby="title desc">
<title id="title">Power BI dashboard concept</title>
<desc id="desc">Dashboard-style data analytics preview with KPI cards and charts.</desc>
<defs>
<linearGradient id="g" x1="0" x2="1" y1="0" y2="1"><stop stop-color="#eef5ff"/><stop offset="1" stop-color="#f6f0ff"/></linearGradient>
<linearGradient id="b" x1="0" x2="1"><stop stop-color="#233a8b"/><stop offset="1" stop-color="#5d6df3"/></linearGradient>
</defs>
<rect width="1200" height="700" rx="36" fill="url(#g)"/>
<rect x="58" y="54" width="1084" height="592" rx="30" fill="#fff" opacity=".92"/>
<text x="98" y="120" font-family="Inter, Arial, sans-serif" font-size="38" font-weight="800" fill="#14213d">Healthcare Operations Dashboard</text>
<text x="98" y="158" font-family="Inter, Arial, sans-serif" font-size="20" fill="#5c667a">Power BI-style reporting: turnaround time, sample flow, bottlenecks, data quality</text>
<g font-family="Inter, Arial, sans-serif">
<rect x="98" y="205" width="220" height="115" rx="20" fill="#f7f9fc"/><text x="125" y="252" font-size="17" fill="#5c667a">Avg TAT</text><text x="125" y="294" font-size="42" font-weight="800" fill="#15294b">18.4h</text>
<rect x="348" y="205" width="220" height="115" rx="20" fill="#f7f9fc"/><text x="375" y="252" font-size="17" fill="#5c667a">Records cleaned</text><text x="375" y="294" font-size="42" font-weight="800" fill="#15294b">1,240</text>
<rect x="598" y="205" width="220" height="115" rx="20" fill="#f7f9fc"/><text x="625" y="252" font-size="17" fill="#5c667a">Data quality</text><text x="625" y="294" font-size="42" font-weight="800" fill="#15294b">96%</text>
<rect x="848" y="205" width="220" height="115" rx="20" fill="#f7f9fc"/><text x="875" y="252" font-size="17" fill="#5c667a">Bottlenecks</text><text x="875" y="294" font-size="42" font-weight="800" fill="#15294b">7</text>
<rect x="98" y="365" width="470" height="220" rx="24" fill="#f7f9fc"/>
<rect x="137" y="525" width="50" height="30" rx="8" fill="url(#b)"/><rect x="212" y="485" width="50" height="70" rx="8" fill="url(#b)"/><rect x="287" y="445" width="50" height="110" rx="8" fill="url(#b)"/><rect x="362" y="415" width="50" height="140" rx="8" fill="url(#b)"/><rect x="437" y="465" width="50" height="90" rx="8" fill="url(#b)"/>
<text x="125" y="410" font-size="20" font-weight="700" fill="#15294b">Department TAT</text>
<rect x="598" y="365" width="470" height="220" rx="24" fill="#f7f9fc"/>
<path d="M646 530 C710 450, 780 470, 840 425 S980 405, 1032 450" fill="none" stroke="#233a8b" stroke-width="14" stroke-linecap="round"/>
<circle cx="840" cy="425" r="12" fill="#5d6df3"/><circle cx="1032" cy="450" r="12" fill="#5d6df3"/>
<text x="625" y="410" font-size="20" font-weight="700" fill="#15294b">Trend & Exceptions</text>
</g>
</svg>